PathFileType	4	(X/Y/Z)	C:/Users/opensim2020/Desktop/walking_exp_matlab/subject02_walking11_straight_01.trc																																																																																																																												
DataRate	CameraRate	NumFrames	NumMarkers	Units	OrigDataRate	OrigDataStartFrame	OrigNumFrames																																																																																																																								
100	100	9	42	mm	100	934	267																																																																																																																								
Frame#	Time	LFHD			RFHD			LBHD			RBHD			C7			T10			CLAV			STRN			RBAK			LSHO			LUPA			LELB			LFRM			LWRA			LWRB			LFIN			RSHO			RUPA			RELB			RFRM			RWRA			RWRB			RFIN			LASI			RASI			LPSI			RPSI			LTHI			LKNE			LTIB			LANK			LHEE			LTOE			RTHI			RKNE			RTIB			RANK			RHEE			RTOE			*39			*40			*41		
		X1	Y1	Z1	X2	Y2	Z2	X3	Y3	Z3	X4	Y4	Z4	X5	Y5	Z5	X6	Y6	Z6	X7	Y7	Z7	X8	Y8	Z8	X9	Y9	Z9	X10	Y10	Z10	X11	Y11	Z11	X12	Y12	Z12	X13	Y13	Z13	X14	Y14	Z14	X15	Y15	Z15	X16	Y16	Z16	X17	Y17	Z17	X18	Y18	Z18	X19	Y19	Z19	X20	Y20	Z20	X21	Y21	Z21	X22	Y22	Z22	X23	Y23	Z23	X24	Y24	Z24	X25	Y25	Z25	X26	Y26	Z26	X27	Y27	Z27	X28	Y28	Z28	X29	Y29	Z29	X30	Y30	Z30	X31	Y31	Z31	X32	Y32	Z32	X33	Y33	Z33	X34	Y34	Z34	X35	Y35	Z35	X36	Y36	Z36	X37	Y37	Z37	X38	Y38	Z38	X39	Y39	Z39	X40	Y40	Z40	X41	Y41	Z41	X42	Y42	Z42
																																																																																																																															
201	2	343.36237	1756.21826	1336.00012	363.03946	1744.65869	1478.3103	247.20761	1640.5658	1340.7561	255.13142	1623.11755	1482.9657	231.8999	1518.20618	1411.47974	192.46445	1241.36108	1413.55542	373.49506	1458.1709	1398.36536	433.86295	1287.96545	1411.74084	182.81372	1344.83398	1476.78845	302.03809	1490.7417	1228.61218	299.25708	1287.96912	1144.36316	305.8299	1148.401	1130.39514	325.68619	1019.05804	1114.22937	389.19067	897.54504	1143.18274	343.57565	897.98834	1108.1051	368.43509	836.65851	1101.94141	316.16544	1492.83948	1596.90955	308.56281	1297.63257	1679.21252	342.78043	1153.83667	1694.46191	392.57571	1043.38965	1709.07495	460.41888	927.40887	1681.43481	418.92691	916.27869	1719.43542	465.3457	859.1897	1714.34436	454.62985	997.80505	1286.65527	430.43066	972.88885	1542.53174	235.19296	1028.58289	1345.98962	219.7058	1021.76685	1459.47339	422.75714	684.46619	1231.85071	402.44275	480.39059	1264.84314	355.72031	289.82278	1268.56702	365.71463	69.99757	1313.58972	330.48004	42.88621	1365.39014	522.94305	35.67046	1301.50867	354.24924	670.21326	1622.65112	360.33987	471.13147	1621.16931	215.32729	358.19751	1612.60437	83.874	220.22614	1570.41882	39.93536	192.46844	1502.95569	139.2193	77.13392	1621.97986	233.62354	1784.79858	1434.75366	2845.22266	1034.09216	-3360.31421	NaN	NaN	NaN
202	2.01	350.59708	1756.91138	1334.3772	370.41498	1745.46313	1476.70862	254.6315	1641.13062	1339.27527	262.67859	1623.76733	1481.43457	238.77751	1519.17419	1409.73376	199.55681	1242.28442	1410.95264	380.90881	1458.81189	1396.91711	440.96725	1288.45398	1410.4115	189.80011	1345.46838	1474.18286	310.34494	1491.86841	1227.00842	310.12164	1289.26086	1142.49451	319.23196	1149.65259	1127.83093	342.21454	1020.461	1112.60437	408.41162	901.04553	1142.46851	363.91388	900.18787	1107.30017	390.08255	839.64581	1100.76099	323.01251	1493.22534	1594.97046	314.81012	1298.3075	1677.57495	347.88797	1154.15845	1692.47559	396.6716	1043.51917	1707.80273	463.29639	926.58124	1680.27319	421.51883	915.94849	1718.14172	467.40463	858.53186	1713.4939	461.51736	997.53802	1285.4071	436.56796	973.88837	1541.54993	241.94125	1029.52686	1343.93506	226.05438	1022.56824	1457.23621	426.80261	684.16284	1230.83289	403.98746	480.3967	1264.08179	355.64206	290.02066	1268.44128	365.69266	70.03892	1313.63208	330.36752	42.9544	1365.41309	522.89471	35.64737	1301.47754	365.77121	671.5307	1622.28174	374.681	472.83008	1620.31421	230.92682	358.42871	1610.45801	101.77409	218.14369	1567.92139	59.11331	188.3166	1500.6521	159.93225	78.51653	1624.1748	241.01408	1785.54785	1433.45959	2845.88062	1034.24487	-3357.44165	NaN	NaN	NaN
203	2.02	357.90396	1757.61475	1332.92725	377.81137	1746.18762	1475.18579	262.12305	1641.66992	1337.81519	269.96991	1624.24133	1479.72522	246.01566	1520.04675	1408.00916	206.53343	1243.28235	1408.42859	388.35699	1459.39124	1395.59802	448.00787	1288.82776	1409.05286	196.98785	1346.29712	1472.07983	318.6749	1492.98669	1225.51294	321.20956	1290.64685	1140.69043	332.59973	1151.07861	1125.34326	358.58081	1022.44983	1110.20313	427.47888	904.73871	1141.88098	383.89548	902.56732	1105.94836	411.68594	843.07135	1099.8717	330.03696	1493.88159	1593.58569	320.84106	1298.78784	1675.8855	352.62418	1154.39392	1690.4823	400.49802	1043.43982	1706.20447	465.77905	925.77966	1679.11731	424.09436	915.71228	1717.04932	469.37906	857.8316	1712.64685	468.0813	997.47784	1284.14185	442.90378	974.93732	1540.49451	248.46826	1030.42554	1342.22925	232.57208	1023.28528	1455.37695	430.82599	683.81702	1229.43848	405.51996	480.29498	1263.32593	355.79901	290.1926	1268.34973	365.66473	70.03759	1313.69836	330.32321	42.89398	1365.45288	522.86499	35.59223	1301.43066	377.34366	673.12769	1622.14246	388.66684	474.48779	1619.34045	246.65552	358.20657	1608.27441	120.41694	215.2563	1565.84961	78.7734	183.30409	1498.64197	181.50101	79.10448	1625.9353	248.31889	1786.03674	1432.02954	2845.89551	1034.24756	-3357.40991	NaN	NaN	NaN
204	2.03	365.2738	1758.22192	1331.63196	385.1524	1746.75293	1473.88733	269.50781	1642.26147	1336.55945	277.48618	1624.7345	1478.37512	254.37532	1520.24988	1406.00781	213.58173	1244.0946	1405.97986	395.7063	1459.89282	1394.29321	454.97119	1289.13464	1407.69885	203.83078	1346.85889	1469.60107	327.00848	1494.04028	1224.13171	331.53018	1291.95654	1138.61414	345.81769	1152.66614	1123.02991	375.09177	1024.69556	1108.56763	446.39398	908.7027	1141.41516	403.41415	905.23706	1104.94983	433.12738	846.76221	1099.17847	337.16452	1494.32263	1592.15503	326.86383	1299.27014	1674.2522	357.54327	1154.84412	1689.01001	404.15839	1043.24902	1704.63184	468.77466	925.1759	1678.35571	426.70581	915.53381	1716.10327	471.4454	857.1189	1711.89758	474.34796	997.58691	1282.80701	449.24973	976.03082	1539.16406	254.87061	1030.98181	1340.81458	239.06447	1023.94873	1454.01404	433.74069	683.38892	1229.06665	407.11768	480.13919	1262.72241	356.39261	290.37759	1268.15234	365.74368	70.00314	1313.7229	330.31024	43.10254	1365.42517	522.82904	35.60258	1301.37891	388.51367	674.50153	1621.72778	402.47122	476.13266	1618.41846	262.50021	357.40912	1606.26404	139.7276	211.7408	1564.30823	98.99302	177.3418	1496.95313	203.92223	78.4408	1626.78394	255.43044	1786.62842	1430.52063	2845.17993	1034.25647	-3360.25806	NaN	NaN	NaN
205	2.04	372.65427	1758.82288	1330.56653	392.52777	1747.24744	1472.77112	276.90823	1642.776	1335.31323	284.95453	1625.12756	1477.19714	261.82141	1521.22705	1404.57129	220.52745	1244.93518	1403.69409	403.07101	1460.32703	1393.09729	461.92725	1289.42102	1406.41199	210.88834	1347.55969	1467.43774	335.32849	1495.12683	1222.78455	342.6105	1293.36987	1136.90894	359.04199	1154.30261	1120.77014	392.1113	1026.72632	1107.00989	464.82526	912.70856	1141.17603	422.78992	908.1156	1104.11279	454.43729	850.63751	1098.69604	344.12515	1494.66602	1590.65393	332.73892	1299.63599	1672.75195	362.16336	1155.08203	1687.43237	407.84952	1043.27905	1703.6228	471.79019	924.59637	1677.70264	429.35443	915.29578	1715.18298	473.60941	856.39752	1711.19861	480.4285	997.84998	1281.41553	455.61142	977.08075	1537.55066	261.14658	1031.3208	1339.6897	245.67995	1024.49866	1453.02869	436.74814	683.05865	1228.29761	408.95859	480.04285	1262.06946	357.41919	290.4967	1267.81494	365.76172	70.0559	1313.77075	330.24033	42.90368	1365.59692	522.79065	35.53847	1301.34241	399.37457	675.8136	1621.20764	416.15216	477.6987	1617.39795	278.5462	356.22171	1604.60547	159.47664	207.31754	1562.85315	119.74754	171.08656	1495.86243	227.56071	77.40064	1627.46692	262.77643	1786.81458	1429.41724	2845.8916	1034.39038	-3357.53174	NaN	NaN	NaN
206	2.05	379.99429	1759.35742	1329.53113	399.90396	1747.61938	1471.74524	284.40207	1643.19727	1334.1842	292.45023	1625.37073	1475.79968	269.02939	1521.82385	1402.92896	227.36185	1245.62769	1401.57178	410.41437	1460.71033	1391.93433	468.84775	1289.56299	1405.20471	217.73665	1348.49963	1465.56018	343.58051	1496.11255	1221.54236	352.86087	1294.79993	1134.92444	372.2543	1155.84473	1118.62402	407.87183	1029.10034	1105.43542	483.57178	917.02466	1140.89917	442.04471	911.20734	1103.39478	475.40186	854.70935	1098.36182	350.78387	1494.87158	1589.15491	338.54395	1299.95667	1671.36536	366.63864	1155.27185	1686.01794	411.49924	1043.1554	1702.57043	474.5965	923.96997	1677.09143	432.02271	915.05664	1714.36743	475.95901	855.94995	1710.79187	486.2543	998.16229	1280.01245	462.28748	978.17938	1535.82776	267.28717	1031.56458	1338.92236	252.26508	1025.06177	1452.42981	439.78973	682.68066	1227.44067	410.91528	479.89246	1261.68359	358.74475	290.58893	1267.41907	365.81332	70.04098	1313.78955	330.22031	42.95235	1365.66711	522.77362	35.50533	1301.3009	409.68124	676.74438	1620.21655	429.56851	479.10547	1616.401	294.57333	354.50876	1603.23267	179.51503	202.17987	1561.5636	141.08698	164.17448	1495.00452	251.94806	75.74148	1627.63672	270.16125	1787.14209	1428.43884	2845.22852	1034.07556	-3360.29688	NaN	NaN	NaN
207	2.06	387.35919	1759.81116	1328.67566	407.24878	1747.91577	1470.87378	291.78732	1643.69019	1333.19458	300.0105	1625.79968	1475.23596	275.58026	1522.61511	1401.47546	234.27844	1246.24561	1399.62073	417.72531	1461.05933	1390.85303	475.70496	1289.69141	1403.98499	224.64761	1349.14563	1463.57263	351.85556	1497.05908	1220.31995	363.57602	1296.2467	1133.15918	384.97775	1157.51941	1116.36804	424.1087	1031.30322	1103.82507	502.10977	921.49396	1140.72473	460.91507	914.37335	1102.65454	496.09055	858.89087	1098.27332	357.65369	1495.08008	1587.87207	343.89658	1299.99341	1669.76025	371.0535	1155.38049	1684.65503	415.14633	1043.00623	1701.62524	477.83176	923.49554	1676.7384	434.75641	914.77576	1713.64905	478.44366	855.51825	1710.53516	491.84161	998.49133	1278.51477	469.02469	979.21484	1534.03638	273.13483	1031.74695	1338.36279	258.72849	1025.60193	1452.15759	442.47308	682.32092	1227.09595	413.07361	479.70914	1261.26538	360.07883	290.66458	1267.12512	365.87891	70.09358	1313.85681	330.08389	42.7849	1365.36865	522.77515	35.46687	1301.22766	419.93591	678.14478	1619.77173	442.98459	480.33484	1615.27112	311.09354	352.43848	1602.09131	200.60617	196.8481	1560.9856	162.97958	156.88968	1494.49878	277.40933	73.79516	1627.67505	277.51193	1787.42395	1427.59766	2845.81006	1034.27222	-3357.26587	NaN	NaN	NaN
208	2.07	394.81885	1760.22498	1327.97827	414.59805	1748.10229	1470.17456	299.27151	1644.09619	1332.32263	307.22839	1625.93457	1473.98608	283.29938	1522.974	1399.92273	241.14464	1246.82068	1397.93396	424.98218	1461.3374	1389.80737	482.53351	1289.77283	1402.84375	231.49246	1349.73132	1461.724	360.06064	1497.92688	1219.16223	374.27588	1297.62	1131.47681	398.14044	1159.18982	1114.66272	440.0806	1033.71143	1103.10864	520.3327	925.98999	1140.7019	479.9834	917.77692	1102.42529	516.34778	863.18945	1098.38086	364.20615	1494.98706	1586.48779	349.26233	1300.10608	1668.37756	375.3483	1155.42859	1683.51086	418.86798	1042.90466	1701.02039	480.7684	922.85199	1676.35413	437.58737	914.44104	1713.04175	481.19626	855.26959	1710.63379	497.31946	998.73395	1276.93311	475.89197	980.19464	1532.18054	279.05789	1031.79724	1338.12866	265.31494	1026.20508	1452.14783	445.58823	681.93634	1226.69067	415.30304	479.5336	1261.02661	361.43018	290.74692	1266.96362	365.96548	70.1388	1313.9325	330.23605	42.99184	1365.70813	522.755	35.38759	1301.17517	429.62735	679.26263	1619.21228	456.29965	481.55994	1614.31018	328.03452	349.90387	1601.33923	222.07895	190.95692	1560.60706	185.52095	149.45337	1494.54041	303.46075	71.20744	1627.32495	284.90231	1787.65918	1426.8772	2845.07935	1034.30713	-3360.20703	NaN	NaN	NaN
209	2.08	402.21118	1760.58679	1327.35327	422.01889	1748.24719	1469.51807	306.70117	1644.46545	1331.4342	314.64105	1626.05408	1473.11157	290.25842	1523.4884	1398.47888	248.02191	1247.29919	1396.45728	432.24072	1461.5509	1388.85413	489.38611	1289.78503	1401.69409	238.27161	1350.25977	1459.85632	368.30847	1498.74707	1218.06641	385.15509	1299.07568	1130.07678	410.94189	1160.82825	1112.81152	456.13809	1036.4342	1101.71912	538.36548	930.63721	1140.74194	498.38318	921.133	1101.9696	536.37305	867.53107	1098.60327	371.0733	1494.92175	1585.35767	354.42929	1300.10486	1667.01331	379.64847	1155.30835	1682.33667	422.49176	1042.62402	1700.35242	483.90805	922.17505	1676.09766	440.35654	913.99567	1712.29822	483.97559	854.84808	1710.57764	502.93246	998.86743	1275.27771	482.95374	981.12799	1530.43188	284.86401	1031.84143	1338.03467	271.8544	1026.8717	1452.31079	448.97849	681.56226	1226.38806	417.57849	479.3486	1260.71594	362.54675	290.85101	1266.95178	366.04929	70.19004	1314.02209	330.31995	43.05479	1365.80444	522.77423	35.33194	1301.14819	438.92764	680.08521	1618.23181	469.5816	482.64322	1613.14526	345.04352	346.9982	1600.93408	244.01042	184.83958	1560.58179	208.34282	141.98422	1494.69958	330.07269	68.40001	1626.78223	292.41922	1787.95605	1426.53918	2845.25146	1034.27039	-3360.30933	NaN	NaN	NaN
